<svg width="393" height="306" viewBox="0 0 393 306" fill="none" xmlns="http://www.w3.org/2000/svg">
<path d="M141.11 290.673C189.071 291.029 258.267 334.242 336.905 264.99C415.543 195.739 388.75 167.995 376.66 70.7854C363.039 -38.7459 224.7 45.7343 122.653 33.174C6.7903 18.9133 57.1871 117.044 15.3405 159.449C-26.5062 201.853 34.1935 254.957 46.7288 262.841C56.7571 269.148 93.149 290.318 141.11 290.673Z" fill="#EBEBEB" fill-opacity="0.25"/>
<circle cx="195.5" cy="149.5" r="149.5" fill="#5FD068"/>
<path d="M74.754 162.088C74.6414 156.593 60.1661 156.331 52.4292 159.251C49.2483 160.451 48.0911 163.894 48.2048 167.292C50.0277 221.773 95.3208 267.3 138.664 285.723C199.387 311.533 277.689 279.514 280.164 270.223C280.967 267.21 280.373 259.893 278.882 253.222C277.091 245.214 270.546 246.983 262.544 248.799C256.208 250.237 242.443 251.274 207.927 253.876L206.166 254.009C133.263 259.505 74.8956 168.991 74.754 162.088Z" fill="#5BC663"/>
<path d="M125.931 148.02C148.344 177.061 205.181 217.72 253.228 148.02" stroke="white" stroke-opacity="0.8" stroke-width="8" stroke-linecap="round"/>
<path d="M217.703 85.8516C221.44 90.3195 230.816 96.5747 238.426 85.8516" stroke="white" stroke-opacity="0.8" stroke-width="8" stroke-linecap="round"/>
<path d="M137.772 85.8516C141.509 92.5535 150.885 101.936 158.495 85.8516" stroke="white" stroke-opacity="0.8" stroke-width="8" stroke-linecap="round"/>
</svg>
