<svg width="390" height="302" viewBox="0 0 390 302" fill="none" xmlns="http://www.w3.org/2000/svg">
<path d="M141.007 289.077C188.969 289.077 258.484 331.776 336.607 261.944C414.729 192.113 387.732 164.568 374.923 67.4502C360.49 -41.9772 222.781 43.5254 120.643 31.7213C4.67855 18.3191 55.8008 116.074 14.2694 158.787C-27.262 201.501 33.8293 254.154 46.4227 261.944C56.4974 268.177 93.0452 289.077 141.007 289.077Z" fill="#EBEBEB" fill-opacity="0.25"/>
<g clip-path="url(#clip0_3523_12319)">
<path d="M185.708 54.592C185.552 56.5933 180.995 62.0636 179.432 63.4868C178.692 61.1984 177.781 58.9684 176.707 56.8157C176.38 56.189 175.975 55.6062 175.501 55.0812C173.425 53.4608 170.915 52.4861 168.286 52.2793L167.125 52.1459C166.611 52.1182 166.097 52.1182 165.583 52.1459C165.129 52.1207 164.675 52.1207 164.221 52.1459C164.221 52.1459 161.339 51.9235 159.285 57.1715C157.675 62.2506 156.509 67.4586 155.8 72.7374C155.8 72.7374 142.398 59.6843 142.733 56.4599C143.069 53.2355 146.598 56.3265 146.799 56.4599C146.665 56.2153 144.185 52.0125 144.788 50.7894C145.391 49.5664 148.898 51.0563 148.898 51.0563C148.898 51.0563 145.503 44.3852 147.469 43.1399C149.434 41.8946 151.489 45.3636 151.489 45.3636C151.489 45.3636 151.221 35.2235 156.247 34.8455C156.878 34.7452 157.523 34.7732 158.143 34.9276C158.763 35.0821 159.345 35.3599 159.854 35.7443C160.363 36.1286 160.789 36.6116 161.106 37.1642C161.422 37.7167 161.623 38.3273 161.697 38.9593C161.697 38.9593 166.164 32.644 167.772 33.1554C169.38 33.6669 168.532 40.1824 168.487 40.4492C170.532 38.7518 172.689 37.1917 174.942 35.7794C175.584 35.3863 176.256 35.0443 176.952 34.7565C177.545 34.4578 178.221 34.3639 178.873 34.4897C180.839 35.268 178.36 39.2039 177.6 40.338C178.114 39.6931 179.387 38.3367 180.303 39.3151C181.219 40.2935 178.605 44.0294 179.298 43.7625C181.911 42.7619 183.073 43.2066 183.341 45.3414C183.609 47.4761 179.007 52.2348 179.007 52.2348C180.194 51.8301 181.479 51.8055 182.681 52.1645C183.882 52.5234 184.941 53.2478 185.708 54.2362C185.727 54.354 185.727 54.4741 185.708 54.592Z" fill="#6E1D14"/>
<path d="M176.908 34.9567C173.096 40.4365 169.806 46.2582 167.08 52.3461C166.567 52.3184 166.052 52.3184 165.539 52.3461C165.085 52.3209 164.63 52.3209 164.176 52.3461C164.176 52.3461 161.295 52.1237 159.24 57.3717C157.63 62.4508 156.465 67.6588 155.755 72.9376C155.755 72.9376 142.354 59.8844 142.689 56.6601C143.024 53.4357 146.553 56.5267 146.754 56.6601C146.62 56.4155 144.141 52.2127 144.744 50.9896C145.347 49.7666 148.854 51.2565 148.854 51.2565C148.854 51.2565 145.458 44.5854 147.424 43.3401C149.39 42.0948 151.445 45.5638 151.445 45.5638C151.445 45.5638 151.177 35.4237 156.202 35.0457C156.833 34.9454 157.478 34.9734 158.098 35.1278C158.718 35.2823 159.3 35.5601 159.809 35.9445C160.318 36.3288 160.744 36.8118 161.061 37.3644C161.378 37.9169 161.579 38.5275 161.652 39.1595C161.652 39.1595 166.119 32.8442 167.728 33.3556C169.336 33.8671 168.487 40.3826 168.442 40.6494C170.488 38.952 172.644 37.3919 174.898 35.9796C175.54 35.5865 176.212 35.2445 176.908 34.9567Z" fill="#5B1511"/>
<path d="M179.655 88.2148C179.655 88.9931 179.655 89.9715 179.543 91.0834C179.412 97.035 178.943 102.974 178.136 108.873L161.764 112.587C161.764 112.587 159.396 99.778 157.654 92.3953C157.408 91.3057 157.163 90.3273 156.939 89.5268C159.548 88.6055 162.23 87.9062 164.958 87.4365C169.855 86.6258 174.872 86.8914 179.655 88.2148Z" fill="#7CC2C7"/>
<path d="M182.291 89.0367C181.467 89.833 180.543 90.5206 179.543 91.0825C176.454 92.7626 173.01 93.6922 169.492 93.7954C165.487 94.0865 161.464 93.5877 157.654 92.3278C156.38 91.8953 155.153 91.3366 153.991 90.66C154.974 90.193 155.956 89.815 156.939 89.4592C159.548 88.5379 162.23 87.8387 164.958 87.3689C169.86 86.5799 174.876 86.8683 179.655 88.2139C180.615 88.4808 181.487 88.7476 182.291 89.0367Z" fill="#449FA1"/>
<path d="M175.612 83.3662C175.456 84.0778 175.232 85.1007 174.92 86.257C173.848 90.4598 171.86 96.5528 169.492 96.4638C166.7 96.4638 165.606 91.0158 164.824 86.8352C164.667 85.879 164.511 85.0118 164.355 84.2557C166.856 84.2557 169.76 84.2557 172.329 84.0333C173.447 83.9486 174.55 83.7245 175.612 83.3662Z" fill="#F1B5AB"/>
<path d="M175.612 83.3662C175.456 84.0778 175.232 85.1007 174.92 86.257C171.637 87.1819 168.191 87.3793 164.824 86.8352C164.667 85.879 164.511 85.0118 164.355 84.2557C166.856 84.2557 169.76 84.2557 172.329 84.0333C173.447 83.9486 174.55 83.7245 175.612 83.3662Z" fill="#F5948D"/>
<path d="M182.335 79.3422C181.688 81.2546 178.337 83.7897 174.741 85.0572C173.762 85.3718 172.751 85.5733 171.726 85.6576C169.336 85.6576 166.655 85.9689 164.332 85.8799H163.685C162.191 85.9063 160.72 85.5132 159.441 84.7458C157.207 83.1003 156.47 79.1643 155.755 72.8268C155.755 72.8268 156.515 62.2642 157.297 58.2838C157.488 56.802 158.151 55.4201 159.188 54.3399C160.225 53.2597 161.581 52.5379 163.059 52.2798C163.556 52.1457 164.065 52.0637 164.578 52.0352C165.539 52.0352 165.539 52.2798 165.539 52.2798C166.008 52.2798 166.566 52.2798 167.169 52.2798C170.169 52.3874 173.062 53.4123 175.456 55.2151C177.166 57.7742 178.49 60.5686 179.387 63.5095C181.04 69.469 182.916 77.6078 182.335 79.3422Z" fill="#F1B5AB"/>
<path d="M185.708 54.5918C185.552 56.5931 180.973 62.0634 179.432 63.4866C178.692 61.1982 177.781 58.9682 176.707 56.8155C179.777 56.3898 182.794 55.6444 185.708 54.5918Z" fill="#5B1511"/>
<path d="M163.685 85.835C162.191 85.8613 160.72 85.4683 159.441 84.7009C157.207 83.0554 156.47 79.1194 155.755 72.7819C155.755 72.7819 156.515 62.2193 157.297 58.2388C157.488 56.7571 158.151 55.3752 159.188 54.295C160.225 53.2148 161.581 52.4929 163.059 52.2348C163.556 52.1008 164.065 52.0188 164.578 51.9902L165.606 52.2348C166.075 52.2348 166.633 52.2348 167.236 52.2348C163.748 58.6188 161.112 65.4291 159.396 72.4928C159.444 77.2685 160.939 81.9187 163.685 85.835Z" fill="#F5948D"/>
<path d="M153.611 139.693C153.611 140.116 153.455 140.583 153.365 141.072C152.762 144.585 151.958 149.3 151.132 154.17C151.132 154.17 149.479 142.028 148.898 135.29C148.317 128.553 144.073 122.793 141.84 118.079C139.606 113.365 134.112 101.623 134.022 88.4369C134.191 79.7752 136.137 71.2392 139.74 63.3535C140.437 65.1543 141.546 66.7685 142.979 68.0678C146.123 70.6374 150.08 72.016 154.147 71.9592C150.462 77.2739 149.993 92.8176 149.993 92.8176C150.801 92.2932 151.636 91.8107 152.494 91.3722C154.673 96.9398 155.947 102.817 156.269 108.784C156.355 119.147 155.465 129.495 153.611 139.693Z" fill="#7CC2C7"/>
<path d="M224.149 72.0259C222.367 76.6694 220.003 81.0701 217.113 85.1235C213.36 89.7488 206.727 97.2205 202.438 101.69C199.021 105.226 194.978 110.162 194.285 113.231C193.749 115.699 190.734 125.906 189.55 129.842C189.55 129.842 185.597 114.276 183.921 110.34L185.932 90.5049C186.405 90.7453 186.899 90.9462 187.406 91.1053C189.275 89.7684 191.03 88.2809 192.655 86.6579C196.832 82.8776 202.304 77.7631 204.18 76.3621C207.263 73.9383 214.097 68.4902 214.097 68.4902C214.629 69.4165 215.401 70.1843 216.331 70.7139C218.744 71.9262 221.47 72.3835 224.149 72.0259Z" fill="#7CC2C7"/>
<path d="M223.367 165.644C222.563 168.09 221.133 172.582 219.57 177.919C214.902 193.485 208.402 216.3 208.402 216.3L205.409 217.745L205.141 217.879C202.333 211.149 200.715 203.987 200.361 196.709C200.236 188.895 201.046 181.094 202.773 173.471L203.197 171.559L201.12 172.159C191.538 174.917 175.099 179.898 175.099 179.898C175.099 179.898 170.274 195.908 166.164 210.385C164.4 216.745 162.791 222.837 161.853 227.107C161.027 230.798 159.731 237.025 158.257 244.207C158.257 244.652 158.078 245.097 157.967 245.541C153.857 265.555 148.586 292.017 148.586 292.017C148.094 292.884 146.352 292.951 145.436 292.929H144.967C144.967 292.929 136.033 260.463 137.619 250.078C138.202 246.235 139.322 242.493 140.947 238.959C141.894 236.809 143.069 234.767 144.453 232.866C144.677 230.265 144.967 225.839 145.302 220.525C146.352 203.736 147.849 177.919 148.63 171.336C149.166 167 150.082 160.996 150.998 155.103C151.01 154.911 151.01 154.718 150.998 154.525V154.169C151.132 153.347 151.244 152.524 151.378 151.701C151.388 151.509 151.388 151.316 151.378 151.123C152.092 146.853 152.762 142.895 153.276 140.004C153.276 140.004 153.276 139.804 153.276 139.715C155.114 129.523 155.989 119.183 155.89 108.828C155.568 102.862 154.293 96.9841 152.115 91.4165C152.621 91.1497 153.135 90.9051 153.656 90.6827C154.639 90.2157 155.622 89.8377 156.604 89.4819C156.828 90.2824 157.073 91.2609 157.319 92.3505C159.061 99.7332 161.429 112.542 161.429 112.542L177.801 108.828C178.608 102.929 179.077 96.9901 179.208 91.0385C179.208 89.9266 179.208 88.9482 179.32 88.1699C180.281 88.4368 181.152 88.7036 181.956 88.9927C183.497 89.5264 184.726 90.0601 185.597 90.4603L183.586 110.296C185.262 114.143 189.215 129.798 189.215 129.798C188.299 132.933 186.646 145.008 185.909 150.612C185.909 150.856 185.909 151.101 185.909 151.323C185.909 151.545 185.909 151.879 185.798 152.124C185.686 152.368 185.798 152.613 185.798 152.813C185.798 153.013 185.798 153.525 185.798 153.525C193.735 150.693 201.936 148.652 210.278 147.432C219.481 145.942 227.097 145.519 227.991 146.409C229.688 148.077 226.606 156.015 223.367 165.644Z" fill="#EE7123"/>
<path d="M233.038 32.0663C232.659 32.3331 232.659 45.8088 231.229 54.0142C229.757 60.3277 227.372 66.3949 224.149 72.0263C222.868 72.375 221.53 72.4582 220.216 72.2708C218.902 72.0834 217.64 71.6293 216.51 70.9366C215.534 70.3186 214.709 69.4903 214.097 68.5128C214.883 63.2035 215.956 57.9404 217.314 52.7467C219.46 44.975 222.582 37.5037 226.606 30.5097C225.597 26.652 225.242 22.6536 225.556 18.6796H225.668C227.052 17.2786 228.661 23.9053 228.661 23.9053C228.661 23.9053 231.877 14.5435 233.418 15.5664C234.959 16.5893 231.743 21.2146 231.497 21.6149C231.721 21.348 235.16 16.7672 235.965 17.1675C236.769 17.5677 233.575 22.6378 232.525 24.1054C233.619 22.7934 237.171 18.7018 237.885 18.7018C238.6 18.7018 234.535 26.1067 234.289 26.5293C234.58 26.2179 238.958 21.348 239.561 22.9491C240.164 24.5502 233.418 31.8217 233.038 32.0663Z" fill="#F1B5AB"/>
<path d="M160.669 59.1726C162.903 58.7946 166.834 58.6389 166.119 57.9273C165.532 57.3792 164.811 56.9926 164.028 56.8054C163.244 56.6183 162.426 56.6371 161.652 56.86C160.846 57.0378 160.087 57.3834 159.425 57.874C158.763 58.3645 158.213 58.989 157.81 59.7063C157.81 59.7063 158.905 59.4617 160.669 59.1726Z" fill="#6E1D14"/>
<path d="M171.301 57.5496C170.43 57.394 169.805 55.4816 173.178 55.5483C174.075 55.5152 174.964 55.7252 175.751 56.156C176.538 56.5868 177.192 57.2222 177.645 57.9944C177.645 57.9944 172.552 57.772 171.301 57.5496Z" fill="#6E1D14"/>
<path d="M145.012 292.928C143.524 294.787 142.194 296.766 141.036 298.843H151.869C151.869 298.843 149.099 293.729 148.429 292.306L145.012 292.928Z" fill="#272B6A"/>
<path d="M205.074 217.879L206.235 220.948H220.285C220.285 220.948 216.286 210.296 205.074 217.879Z" fill="#272B6A"/>
<path d="M166.209 210.385C164.444 216.745 162.836 222.838 161.898 227.107C161.027 231.021 159.664 237.803 158.011 245.564C154.773 248.099 150.149 251.523 149.077 251.523C148.005 251.523 143.27 243.296 141.036 239.026C141.983 236.876 143.159 234.834 144.543 232.933C144.766 230.331 145.056 225.906 145.391 220.592C149.804 218.942 154.089 216.972 158.212 214.699C161.674 212.742 164.332 211.341 166.209 210.385Z" fill="#2B91BE"/>
<path d="M223.367 165.644C222.563 168.09 221.133 172.582 219.57 177.918C214.343 175.225 208.586 173.707 202.706 173.471L203.13 171.559L201.053 172.159C203.55 163.714 206.632 155.452 210.278 147.431C219.48 145.942 227.097 145.519 227.99 146.409C229.688 148.076 226.606 156.015 223.367 165.644Z" fill="#2B91BE"/>
<path d="M157.14 152.524L157.721 152.635V153.213H157.14C155.264 152.908 153.418 152.439 151.623 151.813C151.634 151.62 151.634 151.427 151.623 151.234C153.421 151.823 155.267 152.255 157.14 152.524Z" fill="#6E2B28"/>
<path d="M177.622 152.902V153.503H177.042C174.715 153.79 172.373 153.946 170.028 153.97H168.777C165.934 153.982 163.092 153.826 160.267 153.503H159.687V152.925H160.267C163.478 153.285 166.708 153.441 169.939 153.392C172.291 153.358 174.639 153.202 176.975 152.925L177.622 152.902Z" fill="#6E2B28"/>
<path d="M186.244 150.678C186.244 150.922 186.244 151.167 186.244 151.389C184.077 152.218 181.832 152.829 179.543 153.213H178.963V152.612H179.543C181.842 152.218 184.09 151.569 186.244 150.678Z" fill="#6E2B28"/>
<path d="M157.453 156.304V156.882H156.895C154.932 156.442 152.993 155.901 151.087 155.259C151.1 155.066 151.1 154.873 151.087 154.681C152.97 155.352 154.895 155.902 156.85 156.326L157.453 156.304Z" fill="#6E2B28"/>
<path d="M176.774 156.593L177.355 156.415V157.038L176.774 157.193C174.314 157.825 171.786 158.153 169.246 158.172H168.844C165.765 158.158 162.694 157.875 159.664 157.327L159.083 157.216V156.66L159.664 156.771C162.795 157.346 165.974 157.621 169.157 157.594C171.729 157.586 174.288 157.25 176.774 156.593Z" fill="#6E2B28"/>
<path d="M186.043 152.302V152.991C184.059 154.476 181.86 155.653 179.521 156.482L178.94 156.66V156.082L179.521 155.86C181.804 155.028 183.932 153.826 185.82 152.302C185.855 152.286 185.893 152.277 185.932 152.277C185.97 152.277 186.008 152.286 186.043 152.302Z" fill="#6E2B28"/>
<path d="M160.401 151.635C160.366 151.619 160.328 151.61 160.29 151.61C160.251 151.61 160.213 151.619 160.178 151.635H157.475C157.403 151.639 157.335 151.668 157.282 151.717C157.229 151.765 157.195 151.831 157.185 151.901V152.613V153.191L156.984 156.26V156.816L156.671 159.507C156.664 159.571 156.68 159.636 156.717 159.689C156.754 159.742 156.809 159.78 156.872 159.796L158.882 160.285H159.039C159.077 160.266 159.109 160.237 159.132 160.202C159.156 160.167 159.17 160.127 159.173 160.085L159.597 157.372V156.816L160.089 153.614V153.036L160.245 151.924C160.302 151.903 160.35 151.863 160.379 151.809C160.408 151.756 160.416 151.694 160.401 151.635ZM159.642 153.503L159.15 156.749V157.305L158.793 159.729L157.319 159.373L157.498 156.972V156.393L157.721 153.302V152.724V152.213H159.821L159.709 153.013L159.642 153.503Z" fill="#6E2B28"/>
<path d="M176.997 153.569L176.774 156.594L177.354 156.416L177.555 153.503L176.997 153.569ZM179.231 151.546H177.488C177.451 151.543 177.414 151.547 177.379 151.559C177.344 151.571 177.312 151.591 177.284 151.616C177.257 151.641 177.235 151.671 177.22 151.705C177.205 151.739 177.198 151.776 177.198 151.813V152.991V153.569L176.774 156.594V157.194L176.64 159.017C176.643 159.11 176.683 159.198 176.751 159.262C176.809 159.284 176.873 159.284 176.93 159.262L179.164 158.773C179.233 158.762 179.296 158.727 179.341 158.674C179.386 158.621 179.41 158.553 179.409 158.484V151.813C179.404 151.744 179.374 151.679 179.325 151.63C179.276 151.581 179.211 151.551 179.141 151.546H179.231ZM178.94 158.217L177.31 158.573L177.421 156.927V156.305L177.622 153.392V152.791V152.013H178.806L178.94 158.217Z" fill="#6E2B28"/>
<path d="M166.588 72.982C166.588 72.982 166.432 72.982 166.41 72.8486C166.387 72.7152 166.41 72.7152 166.566 72.6484H166.678L169.135 71.9813C170.333 71.5763 171.609 71.4471 172.865 71.6033C171.301 67.5117 168.822 60.6849 169.157 59.0616C169.173 59.0119 169.207 58.9702 169.253 58.9453C169.299 58.9204 169.352 58.9143 169.403 58.9282C169.427 58.9333 169.449 58.9433 169.469 58.9575C169.489 58.9716 169.505 58.9897 169.518 59.0105C169.531 59.0313 169.539 59.0545 169.542 59.0786C169.545 59.1027 169.543 59.1272 169.537 59.1506C169.313 60.2624 170.721 64.9767 173.334 71.7367V71.9146C173.365 71.9477 173.383 71.9914 173.383 72.0369C173.383 72.0824 173.365 72.1262 173.334 72.1592C173.299 72.1863 173.256 72.2009 173.211 72.2009C173.167 72.2009 173.123 72.1863 173.088 72.1592C173.088 72.1592 172.463 71.5811 169.269 72.4038L166.789 73.0487H166.611L166.588 72.982Z" fill="#6E2B28"/>
<path d="M166.276 77.3186L174.361 76.2734C174.281 77.2999 173.844 78.2667 173.128 79.0088C172.411 79.7509 171.457 80.2224 170.43 80.3428C169.477 80.4898 168.503 80.2539 167.724 79.6868C166.945 79.1197 166.424 78.2679 166.276 77.3186Z" fill="white"/>
<path d="M165.293 63.5757C165.293 64.9322 164.802 66.044 164.176 66.044C163.551 66.044 163.059 64.9322 163.059 63.5757C163.059 62.2193 163.551 61.1074 164.176 61.1074C164.802 61.1074 165.293 62.2193 165.293 63.5757Z" fill="#1E1724"/>
<path d="M175.188 62.4864C175.188 63.7317 174.719 64.7101 174.16 64.7101C173.602 64.7101 173.111 63.6872 173.111 62.4864C173.111 61.2856 173.58 60.2627 174.16 60.2627C174.741 60.2627 175.188 61.1299 175.188 62.4864Z" fill="#1E1724"/>
<path d="M182 17.3223C182.01 17.3587 182.01 17.397 182 17.4335C179.946 19.2949 177.7 20.9347 175.3 22.3256C175.3 22.3256 175.009 23.2818 174.496 24.8384C173.245 28.6187 170.765 35.9569 168.465 41.4272C165.248 49.1212 154.103 71.9587 154.103 71.9587C151.894 72.1963 149.659 71.9181 147.577 71.1461C145.495 70.3741 143.623 69.1296 142.108 67.5113C140.961 66.3601 140.143 64.9244 139.74 63.353C143.076 56.1641 146.99 49.2555 151.445 42.6947C157.766 33.7999 167.08 22.9482 167.08 22.9482C164.623 15.3877 166.231 6.73744 167.862 6.27046C167.946 6.24052 168.037 6.23508 168.124 6.25478C168.211 6.27447 168.29 6.31848 168.353 6.38164C168.91 7.32696 169.13 8.43164 168.978 9.51707C169.403 8.02719 170.162 6.31494 170.944 6.35941C172.24 6.35941 171.904 11.8297 171.86 12.697C171.86 11.8964 172.753 7.44903 174.093 7.80482C175.434 8.16061 174.093 14.9874 174.227 16.922C174.361 18.8566 177.176 17.1666 177.176 17.1666C181.241 14.4315 182 17.3223 182 17.3223Z" fill="#F1B5AB"/>
<path d="M169.09 72.8043C165.717 73.6255 162.664 75.4203 160.312 77.9633C160.312 77.9633 168.018 77.1627 171.837 76.629C176.148 76.0286 178.538 75.5617 178.538 75.5617C178.538 75.5617 176.617 71.7369 169.09 72.8043Z" fill="#6E1D14"/>
<path d="M168.688 24.3047C168.018 25.3721 157.297 37.2912 151.981 46.5418C148.301 53.351 145.005 60.3591 142.108 67.5336C140.957 66.3762 140.139 64.9324 139.74 63.353C143.076 56.1641 146.99 49.2555 151.445 42.6948C157.766 33.8 167.08 22.9483 167.08 22.9483C164.623 15.3877 166.231 6.73749 167.862 6.27051C166.976 9.67501 166.794 13.223 167.326 16.6997C168.599 20.858 169.381 23.3263 168.688 24.3047Z" fill="#F5948D"/>
<path d="M181.911 17.4336C179.857 19.295 177.611 20.9349 175.21 22.3257C175.21 22.3257 174.92 23.2819 174.406 24.8385C174.629 22.7927 174.83 20.8136 174.875 20.658C174.92 20.5023 179.387 18.879 181.911 17.4336Z" fill="#F5948D"/>
<path d="M228.482 31.0425C225.193 37.1486 222.709 43.6508 221.088 50.3887C219.905 56.3483 217.917 65.799 216.621 70.9358C215.645 70.3178 214.821 69.4894 214.209 68.5119C214.994 63.2026 216.068 57.9395 217.425 52.7459C219.571 44.9741 222.693 37.5028 226.717 30.5088C225.708 26.6511 225.353 22.6528 225.667 18.6787H225.779C226.153 22.8969 227.061 27.0511 228.482 31.0425Z" fill="#F5948D"/>
<path d="M153.365 141.183C152.762 144.697 151.958 149.411 151.132 154.281C151.132 154.281 149.479 142.139 148.898 135.402C148.317 128.664 144.073 122.904 141.84 118.19C139.606 113.476 134.112 101.735 134.022 88.5481C134.176 79.8488 136.122 71.2735 139.74 63.3535C140.437 65.1543 141.546 66.7685 142.979 68.0678C139.861 76.6205 138.28 85.6535 138.311 94.7522C138.691 101.69 146.039 116.989 149.255 125.684C151.044 130.731 152.418 135.915 153.365 141.183Z" fill="#449FA1"/>
<path d="M216.219 70.7364C212.802 74.7168 200.227 82.611 192.655 86.6804C196.832 82.9001 202.304 77.7855 204.18 76.3846C207.263 73.9608 214.097 68.5127 214.097 68.5127C214.599 69.4249 215.33 70.1914 216.219 70.7364Z" fill="#449FA1"/>
<path d="M153.366 165.643C153.366 165.643 150.685 184.767 149.01 200.667C147.335 216.566 146.173 237.38 146.173 237.38C142.877 244.277 141.117 251.802 141.014 259.439C141.014 270.202 144.632 288.725 145.481 292.951H145.012C145.012 292.951 136.077 260.484 137.663 250.1C138.247 246.257 139.367 242.515 140.991 238.981C141.938 236.831 143.114 234.789 144.498 232.888C144.721 230.287 145.012 225.861 145.347 220.547C146.397 203.758 147.893 177.941 148.675 171.358C149.211 167.022 150.127 161.018 151.043 155.125C151.055 154.933 151.055 154.74 151.043 154.547V154.191C151.177 153.369 151.288 152.546 151.422 151.723C151.433 151.53 151.433 151.337 151.422 151.145C152.137 146.875 152.807 142.917 153.321 140.026C153.902 145.007 153.879 160.395 153.366 165.643Z" fill="#D15C27"/>
<path d="M205.342 217.745L205.074 217.878C202.265 211.149 200.648 203.987 200.294 196.709C200.169 188.895 200.979 181.094 202.706 173.471L203.13 171.558L201.053 172.159C191.471 174.916 175.031 179.897 175.031 179.897C175.031 179.897 170.207 195.908 166.097 210.384C164.332 216.744 162.724 222.837 161.786 227.107C160.96 230.798 159.664 237.024 158.19 244.207C158.827 234.812 160.028 225.463 161.786 216.21C166.253 196.064 172.217 177.918 172.217 177.918C181.755 176.073 208.446 164.754 208.446 164.754C208.446 164.754 206.369 176.428 204.448 190.593C203.409 199.639 203.71 208.787 205.342 217.745Z" fill="#D15C27"/>
<path d="M142.309 299.978C142.157 299.981 142.007 299.953 141.866 299.898C141.725 299.842 141.597 299.759 141.489 299.653C141.381 299.548 141.295 299.422 141.236 299.283C141.178 299.144 141.147 298.994 141.147 298.844C141.122 298.711 141.122 298.576 141.147 298.443C141.572 296.62 145.615 270.202 150.082 242.228C153.79 218.59 157.967 191.817 161.25 170.914C163.059 159.528 164.444 151.101 165.449 145.141C167.281 134.245 167.281 134.245 168.264 134.023C168.412 133.99 168.565 133.987 168.714 134.015C168.864 134.042 169.006 134.099 169.133 134.182C169.26 134.265 169.369 134.372 169.453 134.497C169.538 134.623 169.597 134.764 169.626 134.912C169.66 135.043 169.667 135.179 169.648 135.312C169.629 135.446 169.584 135.574 169.514 135.69C168.487 139.159 159.15 198.866 152.316 242.562C149.881 258.128 147.67 272.115 146.061 282.366C145.235 287.48 144.587 291.639 144.096 294.53C143.872 295.975 143.694 297.087 143.537 297.865C143.426 299.288 143.269 299.978 142.309 299.978ZM169.224 136.157C169.113 136.227 168.993 136.279 168.867 136.313C168.993 136.279 169.113 136.227 169.224 136.157Z" fill="#90584D"/>
<path d="M229.308 299.978C229.157 299.98 229.006 299.953 228.865 299.898C228.725 299.842 228.596 299.759 228.488 299.653C228.38 299.548 228.294 299.422 228.236 299.283C228.177 299.144 228.147 298.994 228.147 298.843V135.179C228.147 134.872 228.269 134.578 228.487 134.361C228.705 134.144 229 134.022 229.308 134.022C229.616 134.022 229.912 134.144 230.129 134.361C230.347 134.578 230.47 134.872 230.47 135.179V298.843C230.464 299.146 230.339 299.435 230.122 299.647C229.905 299.859 229.612 299.978 229.308 299.978Z" fill="#90584D"/>
<path d="M190.175 299.978C189.936 299.982 189.702 299.911 189.506 299.776C189.309 299.64 189.161 299.446 189.081 299.222C188.768 298.399 179.878 225.239 174.607 181.699C174.587 181.537 174.601 181.372 174.647 181.216C174.693 181.059 174.771 180.913 174.875 180.787C174.985 180.667 175.12 180.571 175.27 180.506C175.42 180.44 175.583 180.408 175.746 180.409H230.202C230.468 180.408 230.726 180.498 230.933 180.664C231.141 180.83 231.285 181.062 231.341 181.321L255.911 298.599C255.943 298.747 255.946 298.899 255.918 299.048C255.891 299.197 255.834 299.338 255.751 299.465C255.667 299.591 255.56 299.699 255.434 299.784C255.308 299.868 255.166 299.927 255.017 299.956C254.868 299.988 254.713 299.991 254.562 299.964C254.411 299.937 254.268 299.88 254.139 299.798C254.01 299.715 253.899 299.608 253.812 299.482C253.725 299.357 253.664 299.215 253.632 299.066L229.264 182.722H177.064C181.889 222.593 190.868 296.131 191.292 298.555C191.355 298.834 191.315 299.127 191.18 299.38C191.044 299.632 190.823 299.829 190.555 299.933C190.432 299.969 190.304 299.984 190.175 299.978Z" fill="#90584D"/>
<path d="M230.224 181.565H157.721V188.103H230.224V181.565Z" fill="#A1D0C0"/>
<path d="M228.482 223.905H151.847V228.909H228.482V223.905Z" fill="#A1D0C0"/>
<path d="M230.224 271.447H145.615V276.451H230.224V271.447Z" fill="#A1D0C0"/>
<path d="M230.715 132.154H167.057V136.646H230.715V132.154Z" fill="#A1D0C0"/>
<path d="M235.049 9.98457C235.049 12.742 228.013 15.1658 217.582 16.4333C211.867 17.1149 206.116 17.4417 200.361 17.4117C181.241 17.434 165.606 14.1207 165.606 9.98457C165.606 5.84848 181.241 2.53516 200.316 2.53516C204.962 2.53516 209.385 2.73529 213.427 3.09108C226.137 4.22517 235.049 6.89362 235.049 9.98457Z" fill="#97D8E9"/>
<path d="M208.692 9.80683C208.692 11.4079 204.672 12.6976 199.758 12.6976C194.844 12.6976 190.823 11.4079 190.823 9.80683C190.823 8.20576 194.844 6.91602 199.758 6.91602C204.672 6.91602 208.692 8.228 208.692 9.80683Z" fill="#68B4D6"/>
<path d="M235.049 5.53702V9.98443C235.049 6.89348 226.114 4.22504 213.628 3.11319C209.541 2.73516 205.051 2.53502 200.361 2.53502C181.241 2.55726 165.606 5.89282 165.606 9.98443V5.00334C165.606 5.00334 174.54 0 201.031 0C205.096 0 208.692 0.133422 211.909 0.355792C229.71 1.55659 235.049 5.53702 235.049 5.53702Z" fill="#68B4D6"/>
<path d="M235.049 5.53745V9.98486C235.049 6.89391 226.114 4.22547 213.628 3.11362C213.048 2.11295 212.445 1.13452 211.953 0.333984C229.71 1.55702 235.049 5.53745 235.049 5.53745Z" fill="#3485BA"/>
<path d="M235.049 9.98431C235.049 12.7417 228.013 15.1655 217.582 16.433C216.8 11.8267 215.418 7.34151 213.472 3.09082C226.137 4.22491 235.049 6.89336 235.049 9.98431Z" fill="#BDE4E8"/>
</g>
<defs>
<clipPath id="clip0_3523_12319">
<rect width="122" height="300" fill="white" transform="translate(134)"/>
</clipPath>
</defs>
</svg>
