<svg width="105" height="94" viewBox="0 0 105 94" fill="none" xmlns="http://www.w3.org/2000/svg">
<circle cx="40.5" cy="50.5" r="40.5" fill="#FFF4D0" fill-opacity="0.5"/>
<path d="M16.4026 88.6522H52.4607L51.9397 86.6461C51.3142 84.2374 49.1401 82.5557 46.6515 82.5557H24.2845C20.5754 82.5557 17.3348 85.0622 16.4026 88.6522Z" fill="#909BA5"/>
<path d="M51.4889 85.4854H18.0298C17.278 86.3866 16.7123 87.4587 16.4026 88.6515H52.4607L51.9397 86.6454C51.8334 86.2354 51.6788 85.8486 51.4889 85.4854Z" fill="#808B95"/>
<path d="M30.0803 82.5553H42.426V78.4787C42.426 77.5072 41.6385 76.7197 40.667 76.7197H31.8393C30.8678 76.7197 30.0803 77.5072 30.0803 78.4787V82.5553Z" fill="#DC4955"/>
<path d="M30.0803 79.3887H42.426V82.5548H30.0803V79.3887Z" fill="#D82F3C"/>
<path d="M64.8433 6.3399C66.1819 3.3435 69.167 1.40723 72.4489 1.40723C77.0419 1.40723 80.7785 5.1438 80.7785 9.73699V28.7852H75.5016V9.73699C75.5016 8.05383 74.1322 6.68413 72.4489 6.68413C71.2463 6.68413 70.1521 7.39369 69.6615 8.49182L39.1856 76.7198H33.4064L64.8433 6.3399Z" fill="#808B95"/>
<path d="M33.4064 76.7199H39.1856L40.5998 73.5537H34.8206L33.4064 76.7199Z" fill="#5E6B75"/>
<path d="M80.8129 36.5452C81.2637 36.5452 81.7008 36.6032 82.1177 36.7118V28.7852H73.9568V37.4866C76.1458 36.8731 78.4467 36.5452 80.8129 36.5452Z" fill="#F6E080"/>
<path d="M75.5016 25.6191H80.7785V28.7853H75.5016V25.6191Z" fill="#5E6B75"/>
<path d="M80.8129 33.3789C78.4466 33.3789 76.1458 33.7066 73.9568 34.3203V37.4864C76.1458 36.8729 78.4467 36.545 80.8129 36.545C81.2637 36.545 81.7008 36.6031 82.1177 36.7116V33.5455C81.701 33.4371 81.2637 33.3789 80.8129 33.3789Z" fill="#ECCD61"/>
<path d="M85.9794 88.6515H65.0324C57.2069 88.6515 51.3061 81.5421 52.7476 73.8505L55.8574 57.2578C58.1082 45.2481 68.5941 36.5449 80.8129 36.5449C83.6662 36.5449 85.9792 38.858 85.9792 41.7112V88.6515H85.9794Z" fill="#DC4955"/>
<path d="M52.6313 74.5928C51.6888 81.9936 57.4591 88.6522 65.0323 88.6522H85.9792V85.4861H65.0323C58.5615 85.4861 53.4068 80.6246 52.6313 74.5928Z" fill="#D82F3C"/>
<path d="M73.9568 55.9616V37.4863C64.8422 40.0412 57.6725 47.574 55.8574 57.2578L55.441 59.4796H70.4389C72.3818 59.4796 73.9568 57.9046 73.9568 55.9616Z" fill="#F6E080"/>
<path d="M70.4389 56.3138H56.0537C55.9828 56.6264 55.917 56.9411 55.8574 57.2582L55.441 59.48H70.4389C72.3818 59.48 73.9568 57.905 73.9568 55.962V52.7959C73.9568 54.7389 72.3818 56.3138 70.4389 56.3138Z" fill="#ECCD61"/>
<path d="M95.097 84.866C100.141 79.8216 100.141 71.6432 95.097 66.5989C90.0527 61.5546 81.8743 61.5546 76.83 66.5989C71.7856 71.6432 71.7856 79.8216 76.83 84.866C81.8743 89.9103 90.0527 89.9103 95.097 84.866Z" fill="#909BA5"/>
<path d="M85.9794 85.4861C79.3809 85.4861 73.9418 80.5379 73.1606 74.1504C73.0971 74.6696 73.0605 75.1972 73.0605 75.7335C73.0605 82.8684 78.8446 88.6522 85.9793 88.6522C93.1142 88.6522 98.898 82.8682 98.898 75.7335C98.898 75.1972 98.8614 74.6696 98.7979 74.1504C98.0171 80.5379 92.5779 85.4861 85.9794 85.4861Z" fill="#808B95"/>
<path d="M88.5152 79.6023C90.6292 78.1878 91.1963 75.3275 89.7819 73.2135C88.3674 71.0995 85.5071 70.5323 83.3931 71.9468C81.279 73.3612 80.7119 76.2216 82.1264 78.3356C83.5408 80.4496 86.4011 81.0167 88.5152 79.6023Z" fill="#F6E080"/>
<path d="M85.9794 77.1735C83.9916 77.1735 82.2981 75.9145 81.6524 74.1504C81.4717 74.644 81.373 75.1773 81.373 75.7335C81.373 78.2775 83.4354 80.3397 85.9792 80.3397C88.5232 80.3397 90.5855 78.2775 90.5855 75.7335C90.5855 75.1773 90.4868 74.644 90.3061 74.1504C89.6608 75.9145 87.9671 77.1735 85.9794 77.1735Z" fill="#ECCD61"/>
<path d="M87.3567 61.5909V54.0849C87.3567 53.3549 86.7648 52.763 86.0349 52.763C85.3049 52.763 84.713 53.3549 84.713 54.0849V61.5909C77.4645 62.2604 71.7689 68.373 71.7689 75.7933C71.7689 80.5839 74.145 84.8272 77.7776 87.4155H65.0469C61.7041 87.4155 58.5624 85.9403 56.4278 83.3681C54.2927 80.796 53.4215 77.4364 54.0373 74.1508L56.5338 60.8302H70.464C73.1364 60.8302 75.3106 58.6559 75.3106 55.9835V38.4971C77.0981 38.0746 78.9561 37.8507 80.8586 37.8507C82.9839 37.8507 84.7132 39.5799 84.7132 41.7053V48.7978C84.7132 49.5277 85.3051 50.1196 86.035 50.1196C86.765 50.1196 87.3569 49.5277 87.3569 48.7978V41.7051C87.3569 39.0575 85.7645 36.7763 83.4877 35.7645V28.7533C83.4877 28.0233 82.8958 27.4314 82.1658 27.4314H82.1458V9.66781C82.1456 4.33691 77.8087 0 72.478 0C68.6691 0 65.2043 2.24708 63.6506 5.72508L56.1363 22.548C55.8385 23.2145 56.1375 23.9962 56.804 24.294C57.4707 24.5921 58.2522 24.2927 58.55 23.6263L66.0643 6.80333C67.193 4.2764 69.7106 2.64373 72.4778 2.64373C76.351 2.64373 79.5021 5.79474 79.5021 9.66781V27.4316H76.8583V9.66781C76.8583 7.25239 74.8932 5.28728 72.4778 5.28728C70.7521 5.28728 69.1822 6.30537 68.4781 7.8814L38.2923 75.46H35.397L56.3931 28.4548C56.6909 27.7883 56.3919 27.0066 55.7252 26.7088C55.0584 26.4105 54.2771 26.7101 53.9793 27.3766L32.5018 75.46H31.789C30.0885 75.46 28.7049 76.8436 28.7049 78.5442V81.3068H24.2192C19.9012 81.3068 16.1277 84.2256 15.0425 88.4049C14.9396 88.8009 15.0261 89.2222 15.2762 89.5458C15.5265 89.8693 15.9126 90.0589 16.3217 90.0589H37.1089C37.8388 90.0589 38.4307 89.4672 38.4307 88.737C38.4307 88.0069 37.8388 87.4152 37.1089 87.4152H18.2707C19.4626 85.3129 21.7139 83.9502 24.2192 83.9502H46.6301C48.5212 83.9502 50.1741 85.2286 50.6494 87.0592L50.7419 87.4152H42.3963C41.6663 87.4152 41.0745 88.0071 41.0745 88.737C41.0745 89.467 41.6663 90.0589 42.3963 90.0589H52.4507C52.8599 90.0589 53.246 89.8695 53.4963 89.5458C53.7466 89.2222 53.8329 88.8009 53.73 88.4048L53.208 86.3948C52.4302 83.3989 49.7252 81.3066 46.63 81.3066H43.718V78.544C43.718 77.025 42.6132 75.762 41.1656 75.5089L70.8917 8.95947C71.1709 8.33451 71.7936 7.93083 72.4778 7.93083C73.4356 7.93083 74.2146 8.71005 74.2146 9.66781V27.4316H73.9886C73.2586 27.4316 72.6667 28.0233 72.6667 28.7535V36.4906C63.5241 39.4341 56.4017 47.1834 54.5546 57.0387L51.4388 73.6639C50.6777 77.7248 51.7547 81.8774 54.3933 85.0566C57.0323 88.2357 60.9152 90.0591 65.0469 90.0591H86.0349C93.9011 90.0591 100.301 83.6594 100.301 75.7932C100.301 68.3728 94.6053 62.2604 87.3567 61.5909ZM31.3482 81.307V78.5443C31.3482 78.3014 31.546 78.1037 31.7889 78.1037H40.6338C40.8767 78.1037 41.0745 78.3014 41.0745 78.5443V81.307H31.3482ZM75.3106 30.0752H80.844V35.2071C78.9531 35.2082 77.1016 35.4087 75.3106 35.7879V30.0752ZM72.6669 39.284V55.9833C72.6669 57.1981 71.6787 58.1863 70.4638 58.1863H57.0292L57.153 57.5256C58.763 48.9369 64.8186 42.1232 72.6669 39.284ZM86.0349 87.4155C79.6262 87.4155 74.4127 82.2018 74.4127 75.7933C74.4127 69.3849 79.6264 64.1711 86.0349 64.1711C92.4433 64.1711 97.6571 69.3849 97.6571 75.7933C97.6571 82.2018 92.4433 87.4155 86.0349 87.4155Z" fill="black"/>
<path d="M86.0348 69.8555C82.761 69.8555 80.0978 72.5189 80.0978 75.7925C80.0978 79.0663 82.7612 81.7295 86.0348 81.7295C89.3084 81.7295 91.9719 79.0661 91.9719 75.7925C91.9719 72.5189 89.3084 69.8555 86.0348 69.8555ZM86.0348 79.086C84.2189 79.086 82.7413 77.6085 82.7413 75.7925C82.7413 73.9765 84.2189 72.499 86.0348 72.499C87.8508 72.499 89.3283 73.9765 89.3283 75.7925C89.3283 77.6086 87.8508 79.086 86.0348 79.086Z" fill="black"/>
</svg>
