<svg width="50" height="48" viewBox="0 0 50 48" fill="none" xmlns="http://www.w3.org/2000/svg">
<ellipse cx="24.5053" cy="24" rx="24.5053" ry="24" fill="white"/>
<path fill-rule="evenodd" clip-rule="evenodd" d="M24.6437 31.8117C26.1377 31.0552 31.4 28.0333 31.4 23C31.4 19.134 28.2 16 24.2526 16C20.3052 16 17.1052 19.134 17.1052 23C17.1052 28.0333 22.3675 31.0552 23.8614 31.8117C24.1108 31.938 24.3944 31.938 24.6437 31.8117ZM24.2526 26C25.9443 26 27.3158 24.6569 27.3158 23C27.3158 21.3431 25.9443 20 24.2526 20C22.5609 20 21.1894 21.3431 21.1894 23C21.1894 24.6569 22.5609 26 24.2526 26Z" fill="#F5DF99"/>
<path d="M24.6437 31.8117L24.3727 31.2764L24.3727 31.2764L24.6437 31.8117ZM23.8614 31.8117L23.5904 32.347L23.5904 32.347L23.8614 31.8117ZM30.8 23C30.8 25.2938 29.6024 27.1631 28.1611 28.5821C26.7212 29.9999 25.0932 30.9116 24.3727 31.2764L24.9148 32.347C25.6882 31.9554 27.4383 30.9778 29.003 29.4372C30.5664 27.8979 32 25.7395 32 23H30.8ZM24.2526 16.6C27.8805 16.6 30.8 19.4771 30.8 23H32C32 18.7909 28.5195 15.4 24.2526 15.4V16.6ZM17.7052 23C17.7052 19.4771 20.6247 16.6 24.2526 16.6V15.4C19.9857 15.4 16.5052 18.7909 16.5052 23H17.7052ZM24.1325 31.2764C23.4119 30.9116 21.784 29.9999 20.3441 28.5821C18.9028 27.1631 17.7052 25.2938 17.7052 23H16.5052C16.5052 25.7395 17.9388 27.8979 19.5021 29.4372C21.0669 30.9778 22.817 31.9554 23.5904 32.347L24.1325 31.2764ZM24.3727 31.2764C24.2938 31.3164 24.2114 31.3164 24.1325 31.2764L23.5904 32.347C24.0101 32.5595 24.4951 32.5595 24.9148 32.347L24.3727 31.2764ZM26.7158 23C26.7158 24.3138 25.6248 25.4 24.2526 25.4V26.6C26.2639 26.6 27.9158 24.9999 27.9158 23H26.7158ZM24.2526 20.6C25.6248 20.6 26.7158 21.6862 26.7158 23H27.9158C27.9158 21.0001 26.2639 19.4 24.2526 19.4V20.6ZM21.7894 23C21.7894 21.6862 22.8804 20.6 24.2526 20.6V19.4C22.2413 19.4 20.5894 21.0001 20.5894 23H21.7894ZM24.2526 25.4C22.8804 25.4 21.7894 24.3138 21.7894 23H20.5894C20.5894 24.9999 22.2413 26.6 24.2526 26.6V25.4Z" fill="#F5DF99"/>
</svg>
