<svg width="29" height="29" viewBox="0 0 29 29" fill="none" xmlns="http://www.w3.org/2000/svg">
<path d="M14.1045 2.6284L23.698 10.162H4.51132L14.1045 2.6284ZM27.7673 10.4115L14.8271 0.248964C14.4038 -0.083313 13.8056 -0.083313 13.3824 0.248964L0.441712 10.4115C0.0531731 10.7165 -0.0980107 11.2324 0.064591 11.6969C0.227345 12.1617 0.668714 12.4727 1.16398 12.4727H3.50161V18.0943L5.82979 19.731V12.4727H22.3794V16.5983L24.7076 14.9728V12.4727H27.0449C27.5403 12.4727 27.9817 12.1617 28.1447 11.6969C28.3073 11.2324 28.1558 10.7165 27.7673 10.4115Z" fill="#161616"/>
<path d="M14.1045 2.6284L23.698 10.162H4.51132L14.1045 2.6284ZM27.7673 10.4115L14.8271 0.248964C14.4038 -0.083313 13.8056 -0.083313 13.3824 0.248964L0.441712 10.4115C0.0531731 10.7165 -0.0980107 11.2324 0.064591 11.6969C0.227345 12.1617 0.668714 12.4727 1.16398 12.4727H3.50161V18.0943L5.82979 19.731V12.4727H22.3794V16.5983L24.7076 14.9728V12.4727H27.0449C27.5403 12.4727 27.9817 12.1617 28.1447 11.6969C28.3073 11.2324 28.1558 10.7165 27.7673 10.4115Z" fill="black" fill-opacity="0.2"/>
<path d="M11.837 25.8414L3.50134 19.9821V22.8337L11.166 28.1993C11.3674 28.3401 11.602 28.4106 11.837 28.4106C12.0719 28.4106 12.307 28.3401 12.5081 28.1994L24.7073 19.6595V16.8559L11.837 25.8414Z" fill="#161616"/>
<path d="M11.837 25.8414L3.50134 19.9821V22.8337L11.166 28.1993C11.3674 28.3401 11.602 28.4106 11.837 28.4106C12.0719 28.4106 12.307 28.3401 12.5081 28.1994L24.7073 19.6595V16.8559L11.837 25.8414Z" fill="black" fill-opacity="0.2"/>
</svg>
