<svg width="139" height="139" viewBox="0 0 139 139" fill="none" xmlns="http://www.w3.org/2000/svg">
<path d="M104.407 139H34.5932C15.488 139 0 123.512 0 104.407V34.5932C0 15.488 15.488 0 34.5932 0H104.407C123.512 0 139 15.488 139 34.5932V104.407C139 123.512 123.512 139 104.407 139Z" fill="#5FD068"/>
<path d="M69.4997 23.4922L96.0708 44.5161H42.9294L69.4997 23.4922ZM107.342 45.2123L71.501 16.852C70.3287 15.9247 68.6719 15.9247 67.4996 16.852L31.6578 45.2123C30.5817 46.0637 30.1629 47.5033 30.6133 48.7996C31.0641 50.0967 32.2865 50.9645 33.6583 50.9645H40.1328V66.6528L46.5812 71.2201V50.9645H92.4186V62.4777L98.867 57.9417V50.9645H105.341C106.713 50.9645 107.935 50.0967 108.387 48.7996C108.837 47.5033 108.418 46.0637 107.342 45.2123Z" fill="white"/>
<path d="M63.2196 88.2732L40.1324 71.9216V79.8796L61.3613 94.8532C61.9192 95.2462 62.569 95.4431 63.2196 95.4431C63.8703 95.4431 64.5214 95.2462 65.0784 94.8536L98.8667 71.0213V63.1974L63.2196 88.2732Z" fill="white"/>
<path d="M34.4789 103.372C34.4789 103.168 34.414 103.037 34.2845 102.981C34.1546 102.925 34.0011 102.889 33.8232 102.87V102.535H38.3647V102.87C38.1863 102.889 38.0371 102.925 37.9152 102.981C37.7938 103.037 37.7335 103.168 37.7335 103.372V111.964H44.388C44.485 111.964 44.5824 111.922 44.6794 111.838C44.7764 111.755 44.8249 111.564 44.8249 111.267H45.1167V115.423H44.8249C44.8249 115.125 44.7764 114.949 44.6794 114.893C44.5824 114.837 44.485 114.81 44.388 114.81H33.8232V114.475C34.0011 114.456 34.1546 114.419 34.2845 114.363C34.414 114.307 34.4789 114.177 34.4789 113.973V103.372Z" fill="white"/>
<path d="M53.6659 105.436L51.6743 110.318H55.706L53.6659 105.436ZM56.9205 114.475C56.969 114.475 57.0331 114.466 57.1149 114.447C57.1954 114.429 57.2359 114.354 57.2359 114.224C57.2359 114.149 57.2072 114.033 57.1511 113.875C57.0942 113.717 57.0297 113.545 56.9567 113.359C56.8838 113.173 56.8066 112.987 56.7261 112.801C56.6447 112.615 56.5802 112.457 56.5317 112.327H50.8971C50.8642 112.457 50.812 112.615 50.7394 112.801C50.6665 112.987 50.5893 113.173 50.5088 113.359C50.4274 113.545 50.3544 113.717 50.2899 113.875C50.225 114.033 50.1929 114.149 50.1929 114.224C50.1929 114.354 50.233 114.429 50.3144 114.447C50.3949 114.466 50.4598 114.475 50.5088 114.475V114.81H46.8654V114.475C46.9628 114.475 47.0598 114.452 47.1568 114.405C47.2542 114.359 47.3183 114.289 47.3512 114.195C47.837 112.895 48.3308 111.606 48.8326 110.332C49.3348 109.058 49.7839 107.905 50.1807 106.873C50.5775 105.841 50.9051 104.985 51.1641 104.306C51.4234 103.628 51.5529 103.242 51.5529 103.149C51.5529 102.982 51.4474 102.888 51.237 102.87V102.535H56.3128V102.87C56.1024 102.888 55.9974 102.982 55.9974 103.149C55.9974 103.204 56.0822 103.451 56.2525 103.888C56.4225 104.325 56.6447 104.874 56.9205 105.534C57.1954 106.194 57.499 106.924 57.8309 107.724C58.1627 108.523 58.4946 109.324 58.8265 110.123C59.1583 110.923 59.4704 111.681 59.7618 112.397C60.0532 113.113 60.2876 113.713 60.466 114.195C60.4984 114.289 60.563 114.359 60.6604 114.405C60.7574 114.452 60.8548 114.475 60.9518 114.475V114.81H56.9205V114.475Z" fill="white"/>
<path d="M70.5448 112.466C71.1116 112.466 71.5893 112.354 71.9777 112.131C72.3661 111.908 72.5605 111.518 72.5605 110.96C72.5605 110.588 72.5002 110.3 72.3787 110.095C72.2573 109.891 72.0996 109.742 71.9052 109.648C71.7108 109.556 71.4957 109.5 71.2613 109.481C71.0268 109.463 70.7877 109.453 70.5448 109.453H67.8979V112.466H70.5448ZM70.7877 107.556C71.419 107.556 71.844 107.427 72.0629 107.166C72.2813 106.905 72.3905 106.59 72.3905 106.218C72.3905 105.659 72.2573 105.297 71.9899 105.13C71.723 104.962 71.322 104.878 70.7877 104.878H67.8979V107.556H70.7877ZM64.6434 103.372C64.6434 103.168 64.5742 103.037 64.4367 102.982C64.2989 102.926 64.1087 102.888 63.8658 102.87V102.535H71.1765C71.9052 102.535 72.528 102.577 73.0467 102.66C73.5645 102.744 73.9853 102.898 74.3096 103.121C74.6331 103.344 74.8717 103.655 75.0256 104.056C75.1796 104.455 75.2567 104.962 75.2567 105.576C75.2567 106.171 75.0986 106.705 74.7832 107.18C74.4673 107.654 74.0908 108.012 73.6535 108.254C74.3096 108.496 74.8051 108.844 75.1412 109.3C75.4768 109.756 75.6451 110.402 75.6451 111.239C75.6451 112.336 75.3044 113.206 74.6229 113.847C73.9415 114.489 72.8299 114.81 71.2883 114.81H63.8658V114.475C64.1087 114.456 64.2989 114.419 64.4367 114.363C64.5742 114.307 64.6434 114.178 64.6434 113.972V103.372Z" fill="white"/>
<path d="M84.3396 105.325C83.8863 105.325 83.457 105.404 83.0522 105.563C82.6474 105.721 82.2915 105.946 81.9837 106.235C81.6763 106.525 81.4372 106.875 81.2672 107.285C81.0977 107.697 81.0121 108.163 81.0121 108.686C81.0121 109.209 81.0977 109.676 81.2672 110.087C81.4372 110.498 81.6763 110.848 81.9837 111.137C82.2915 111.427 82.6474 111.651 83.0522 111.81C83.457 111.969 83.8863 112.048 84.3396 112.048C84.809 112.048 85.242 111.969 85.6388 111.81C86.0352 111.651 86.3877 111.427 86.6956 111.137C87.0026 110.848 87.2421 110.498 87.412 110.087C87.582 109.676 87.6671 109.209 87.6671 108.686C87.6671 108.163 87.582 107.697 87.412 107.285C87.2421 106.875 87.0026 106.525 86.6956 106.235C86.3877 105.946 86.0352 105.721 85.6388 105.563C85.242 105.404 84.809 105.325 84.3396 105.325ZM84.3396 102.367C85.1008 102.367 85.8657 102.488 86.6344 102.73C87.4036 102.972 88.0998 103.349 88.7235 103.86C89.3467 104.372 89.8527 105.027 90.2415 105.826C90.6299 106.627 90.8243 107.575 90.8243 108.672C90.8243 109.788 90.6299 110.742 90.2415 111.532C89.8527 112.322 89.3467 112.969 88.7235 113.47C88.0998 113.973 87.4036 114.335 86.6344 114.558C85.8657 114.782 85.1008 114.893 84.3396 114.893C83.5785 114.893 82.8136 114.782 82.0448 114.558C81.2753 114.335 80.5791 113.973 79.9558 113.47C79.3326 112.969 78.8265 112.322 78.4382 111.532C78.0494 110.742 77.855 109.788 77.855 108.672C77.855 107.575 78.0494 106.627 78.4382 105.826C78.8265 105.027 79.3326 104.372 79.9558 103.86C80.5791 103.349 81.2753 102.972 82.0448 102.73C82.8136 102.488 83.5785 102.367 84.3396 102.367Z" fill="white"/>
<path d="M100.539 107.891C101.057 107.891 101.466 107.766 101.765 107.514C102.065 107.264 102.215 106.887 102.215 106.385C102.215 105.957 102.089 105.599 101.838 105.311C101.587 105.022 101.098 104.878 100.369 104.878H97.0903V107.891H100.539ZM94.0301 103.372C94.0301 103.168 93.9736 103.037 93.8602 102.981C93.7472 102.926 93.6253 102.889 93.4958 102.87V102.535H101.292C102.506 102.535 103.474 102.86 104.194 103.511C104.915 104.162 105.275 105.129 105.275 106.413C105.275 107.417 105.02 108.212 104.51 108.798C104 109.384 103.356 109.844 102.579 110.179L104.741 113.917C104.821 114.066 104.939 114.196 105.093 114.307C105.246 114.419 105.413 114.475 105.591 114.475V114.81H100.685V114.475C100.798 114.475 100.923 114.452 101.061 114.405C101.198 114.359 101.268 114.261 101.268 114.112C101.268 114.019 101.183 113.787 101.013 113.415C100.843 113.043 100.648 112.643 100.43 112.215C100.212 111.787 100.001 111.378 99.7983 110.988C99.5959 110.597 99.4707 110.346 99.4222 110.235H97.0903V113.973C97.0903 114.177 97.151 114.307 97.2724 114.363C97.3939 114.419 97.5436 114.456 97.7215 114.475V114.81H93.5443V114.475C93.6418 114.456 93.7472 114.419 93.8602 114.363C93.9736 114.307 94.0301 114.177 94.0301 113.973V103.372Z" fill="white"/>
</svg>
